<svg width="931" height="592" viewBox="0 0 931 592" fill="none" xmlns="http://www.w3.org/2000/svg">
<path opacity="0.1" d="M831.1 586.477C917.983 586.477 944.453 514.818 919.422 427.06C905.266 377.43 872.532 312.53 819.053 283.16C672.706 202.786 692.429 198.927 656.2 113.378C597.06 -26.2751 369.649 -31.6641 276.728 68.4079C204.428 146.272 173.488 256.039 74.984 336.915C-43.916 434.538 -11.486 587.891 102.725 587.891L831.1 586.477Z" fill="#367CFF"/>
<path d="M928.392 501.844H11.995L64.735 388.316H875.652L928.392 501.844Z" fill="#292A2E"/>
<path d="M928.392 501.844H11.995L64.735 388.316H875.652L928.392 501.844Z" fill="white"/>
<path d="M928.392 502.844H12C11.8315 502.844 11.6656 502.802 11.5178 502.721C11.37 502.64 11.2451 502.522 11.1547 502.38C11.0643 502.238 11.0113 502.075 11.0007 501.907C10.9901 501.739 11.0222 501.57 11.094 501.418L63.83 387.891C63.9107 387.719 64.0387 387.574 64.1989 387.472C64.3592 387.37 64.5452 387.316 64.735 387.316H875.651C875.841 387.316 876.027 387.37 876.188 387.472C876.348 387.573 876.476 387.719 876.557 387.891L929.3 501.418C929.372 501.57 929.404 501.738 929.393 501.905C929.383 502.073 929.331 502.236 929.241 502.378C929.151 502.52 929.027 502.637 928.88 502.718C928.733 502.8 928.568 502.843 928.4 502.844H928.392ZM13.569 500.844H926.817L875.017 389.316H65.371L13.569 500.844Z" fill="#292A2E"/>
<path d="M533.566 350.307H444.82V417.399H533.566V350.307Z" fill="#292A2E"/>
<path opacity="0.64" d="M533.567 350.308H444.82V386.15H533.567V350.308Z" fill="#0C0C0C"/>
<path d="M677.681 84.1239H300.706C294.777 84.1239 289.97 88.9305 289.97 94.8599V357.952C289.97 363.881 294.777 368.688 300.706 368.688H677.681C683.61 368.688 688.417 363.881 688.417 357.952V94.8599C688.417 88.9305 683.61 84.1239 677.681 84.1239Z" fill="#292A2E"/>
<path d="M672.381 96.3189H306.006C303.572 96.3189 301.599 98.292 301.599 100.726V318.923C301.599 321.357 303.572 323.33 306.006 323.33H672.381C674.815 323.33 676.788 321.357 676.788 318.923V100.726C676.788 98.292 674.815 96.3189 672.381 96.3189Z" fill="white"/>
<path d="M552.03 411.885H426.357C423.141 411.885 420.533 414.492 420.533 417.708C420.533 420.925 423.141 423.532 426.357 423.532H552.03C555.247 423.532 557.854 420.925 557.854 417.708C557.854 414.492 555.247 411.885 552.03 411.885Z" fill="#292A2E"/>
<path d="M427.037 132.58H410.352C410.252 132.584 410.153 132.567 410.06 132.532C409.967 132.496 409.882 132.442 409.811 132.373C409.739 132.304 409.682 132.221 409.643 132.129C409.604 132.038 409.584 131.939 409.584 131.839C409.584 131.74 409.604 131.641 409.643 131.55C409.682 131.458 409.739 131.375 409.811 131.306C409.882 131.237 409.967 131.183 410.06 131.147C410.153 131.112 410.252 131.095 410.352 131.099H427.037C427.229 131.106 427.41 131.187 427.543 131.325C427.676 131.463 427.751 131.648 427.751 131.839C427.751 132.031 427.676 132.216 427.543 132.354C427.41 132.492 427.229 132.573 427.037 132.58V132.58Z" fill="#292A2E"/>
<path d="M398.319 132.58H392.006C391.906 132.584 391.807 132.567 391.714 132.532C391.621 132.496 391.536 132.442 391.465 132.373C391.393 132.304 391.336 132.221 391.297 132.129C391.258 132.038 391.238 131.939 391.238 131.839C391.238 131.74 391.258 131.641 391.297 131.55C391.336 131.458 391.393 131.375 391.465 131.306C391.536 131.237 391.621 131.183 391.714 131.147C391.807 131.112 391.906 131.095 392.006 131.099H398.319C398.419 131.095 398.518 131.112 398.611 131.147C398.704 131.183 398.789 131.237 398.86 131.306C398.932 131.375 398.989 131.458 399.028 131.55C399.067 131.641 399.087 131.74 399.087 131.839C399.087 131.939 399.067 132.038 399.028 132.129C398.989 132.221 398.932 132.304 398.86 132.373C398.789 132.442 398.704 132.496 398.611 132.532C398.518 132.567 398.419 132.584 398.319 132.58V132.58Z" fill="#367CFF"/>
<path d="M398.319 145.945H392.006C391.809 145.945 391.621 145.867 391.482 145.728C391.343 145.589 391.265 145.4 391.265 145.204C391.265 145.007 391.343 144.819 391.482 144.68C391.621 144.541 391.809 144.463 392.006 144.463H398.319C398.516 144.463 398.704 144.541 398.843 144.68C398.982 144.819 399.06 145.007 399.06 145.204C399.06 145.4 398.982 145.589 398.843 145.728C398.704 145.867 398.516 145.945 398.319 145.945V145.945Z" fill="#367CFF"/>
<path d="M398.319 159.31H392.006C391.809 159.31 391.621 159.232 391.482 159.093C391.343 158.954 391.265 158.765 391.265 158.569C391.265 158.372 391.343 158.184 391.482 158.045C391.621 157.906 391.809 157.828 392.006 157.828H398.319C398.516 157.828 398.704 157.906 398.843 158.045C398.982 158.184 399.06 158.372 399.06 158.569C399.06 158.765 398.982 158.954 398.843 159.093C398.704 159.232 398.516 159.31 398.319 159.31V159.31Z" fill="#367CFF"/>
<path d="M398.319 172.675H392.006C391.809 172.675 391.621 172.597 391.482 172.458C391.343 172.319 391.265 172.13 391.265 171.934C391.265 171.737 391.343 171.549 391.482 171.41C391.621 171.271 391.809 171.193 392.006 171.193H398.319C398.516 171.193 398.704 171.271 398.843 171.41C398.982 171.549 399.06 171.737 399.06 171.934C399.06 172.13 398.982 172.319 398.843 172.458C398.704 172.597 398.516 172.675 398.319 172.675V172.675Z" fill="#367CFF"/>
<path d="M398.319 186.039H392.006C391.906 186.043 391.807 186.026 391.714 185.991C391.621 185.955 391.536 185.901 391.465 185.832C391.393 185.763 391.336 185.68 391.297 185.588C391.258 185.497 391.238 185.398 391.238 185.298C391.238 185.199 391.258 185.1 391.297 185.009C391.336 184.917 391.393 184.834 391.465 184.765C391.536 184.696 391.621 184.642 391.714 184.606C391.807 184.571 391.906 184.554 392.006 184.558H398.319C398.419 184.554 398.518 184.571 398.611 184.606C398.704 184.642 398.789 184.696 398.86 184.765C398.932 184.834 398.989 184.917 399.028 185.009C399.067 185.1 399.087 185.199 399.087 185.298C399.087 185.398 399.067 185.497 399.028 185.588C398.989 185.68 398.932 185.763 398.86 185.832C398.789 185.901 398.704 185.955 398.611 185.991C398.518 186.026 398.419 186.043 398.319 186.039V186.039Z" fill="#367CFF"/>
<path d="M398.319 199.4H392.006C391.809 199.4 391.621 199.322 391.482 199.183C391.343 199.044 391.265 198.855 391.265 198.659C391.265 198.462 391.343 198.274 391.482 198.135C391.621 197.996 391.809 197.918 392.006 197.918H398.319C398.516 197.918 398.704 197.996 398.843 198.135C398.982 198.274 399.06 198.462 399.06 198.659C399.06 198.855 398.982 199.044 398.843 199.183C398.704 199.322 398.516 199.4 398.319 199.4V199.4Z" fill="#367CFF"/>
<path d="M398.319 212.769H392.006C391.809 212.769 391.621 212.691 391.482 212.552C391.343 212.413 391.265 212.224 391.265 212.028C391.265 211.831 391.343 211.643 391.482 211.504C391.621 211.365 391.809 211.287 392.006 211.287H398.319C398.516 211.287 398.704 211.365 398.843 211.504C398.982 211.643 399.06 211.831 399.06 212.028C399.06 212.224 398.982 212.413 398.843 212.552C398.704 212.691 398.516 212.769 398.319 212.769V212.769Z" fill="#367CFF"/>
<path d="M398.319 226.133H392.006C391.906 226.137 391.807 226.12 391.714 226.085C391.621 226.049 391.536 225.995 391.465 225.926C391.393 225.857 391.336 225.774 391.297 225.682C391.258 225.591 391.238 225.492 391.238 225.392C391.238 225.293 391.258 225.194 391.297 225.103C391.336 225.011 391.393 224.928 391.465 224.859C391.536 224.79 391.621 224.736 391.714 224.7C391.807 224.665 391.906 224.648 392.006 224.652H398.319C398.419 224.648 398.518 224.665 398.611 224.7C398.704 224.736 398.789 224.79 398.86 224.859C398.932 224.928 398.989 225.011 399.028 225.103C399.067 225.194 399.087 225.293 399.087 225.392C399.087 225.492 399.067 225.591 399.028 225.682C398.989 225.774 398.932 225.857 398.86 225.926C398.789 225.995 398.704 226.049 398.611 226.085C398.518 226.12 398.419 226.137 398.319 226.133V226.133Z" fill="#367CFF"/>
<path d="M398.319 239.5H392.006C391.809 239.5 391.621 239.422 391.482 239.283C391.343 239.144 391.265 238.955 391.265 238.759C391.265 238.562 391.343 238.374 391.482 238.235C391.621 238.096 391.809 238.018 392.006 238.018H398.319C398.516 238.018 398.704 238.096 398.843 238.235C398.982 238.374 399.06 238.562 399.06 238.759C399.06 238.955 398.982 239.144 398.843 239.283C398.704 239.422 398.516 239.5 398.319 239.5V239.5Z" fill="#367CFF"/>
<path d="M398.319 252.863H392.006C391.809 252.863 391.621 252.785 391.482 252.646C391.343 252.507 391.265 252.318 391.265 252.122C391.265 251.925 391.343 251.737 391.482 251.598C391.621 251.459 391.809 251.381 392.006 251.381H398.319C398.516 251.381 398.704 251.459 398.843 251.598C398.982 251.737 399.06 251.925 399.06 252.122C399.06 252.318 398.982 252.507 398.843 252.646C398.704 252.785 398.516 252.863 398.319 252.863V252.863Z" fill="#367CFF"/>
<path d="M398.319 266.227H392.006C391.906 266.231 391.807 266.214 391.714 266.179C391.621 266.143 391.536 266.089 391.465 266.02C391.393 265.951 391.336 265.868 391.297 265.776C391.258 265.685 391.238 265.586 391.238 265.486C391.238 265.387 391.258 265.288 391.297 265.197C391.336 265.105 391.393 265.022 391.465 264.953C391.536 264.884 391.621 264.83 391.714 264.794C391.807 264.759 391.906 264.742 392.006 264.746H398.319C398.419 264.742 398.518 264.759 398.611 264.794C398.704 264.83 398.789 264.884 398.86 264.953C398.932 265.022 398.989 265.105 399.028 265.197C399.067 265.288 399.087 265.387 399.087 265.486C399.087 265.586 399.067 265.685 399.028 265.776C398.989 265.868 398.932 265.951 398.86 266.02C398.789 266.089 398.704 266.143 398.611 266.179C398.518 266.214 398.419 266.231 398.319 266.227V266.227Z" fill="#367CFF"/>
<path d="M398.319 279.592H392.006C391.809 279.592 391.621 279.514 391.482 279.375C391.343 279.236 391.265 279.047 391.265 278.851C391.265 278.654 391.343 278.466 391.482 278.327C391.621 278.188 391.809 278.11 392.006 278.11H398.319C398.516 278.11 398.704 278.188 398.843 278.327C398.982 278.466 399.06 278.654 399.06 278.851C399.06 279.047 398.982 279.236 398.843 279.375C398.704 279.514 398.516 279.592 398.319 279.592V279.592Z" fill="#367CFF"/>
<path d="M398.319 292.957H392.006C391.809 292.957 391.621 292.879 391.482 292.74C391.343 292.601 391.265 292.412 391.265 292.216C391.265 292.019 391.343 291.831 391.482 291.692C391.621 291.553 391.809 291.475 392.006 291.475H398.319C398.516 291.475 398.704 291.553 398.843 291.692C398.982 291.831 399.06 292.019 399.06 292.216C399.06 292.412 398.982 292.601 398.843 292.74C398.704 292.879 398.516 292.957 398.319 292.957Z" fill="#367CFF"/>
<path d="M398.319 306.321H392.006C391.906 306.325 391.807 306.308 391.714 306.273C391.621 306.237 391.536 306.183 391.465 306.114C391.393 306.045 391.336 305.962 391.297 305.87C391.258 305.779 391.238 305.68 391.238 305.58C391.238 305.481 391.258 305.382 391.297 305.291C391.336 305.199 391.393 305.116 391.465 305.047C391.536 304.978 391.621 304.924 391.714 304.888C391.807 304.853 391.906 304.836 392.006 304.84H398.319C398.419 304.836 398.518 304.853 398.611 304.888C398.704 304.924 398.789 304.978 398.86 305.047C398.932 305.116 398.989 305.199 399.028 305.291C399.067 305.382 399.087 305.481 399.087 305.58C399.087 305.68 399.067 305.779 399.028 305.87C398.989 305.962 398.932 306.045 398.86 306.114C398.789 306.183 398.704 306.237 398.611 306.273C398.518 306.308 398.419 306.325 398.319 306.321V306.321Z" fill="#367CFF"/>
<path d="M440.371 145.945H425.171C425.072 145.949 424.972 145.932 424.879 145.897C424.786 145.861 424.701 145.807 424.63 145.738C424.558 145.669 424.501 145.586 424.462 145.494C424.423 145.403 424.403 145.304 424.403 145.204C424.403 145.105 424.423 145.006 424.462 144.915C424.501 144.823 424.558 144.74 424.63 144.671C424.701 144.602 424.786 144.548 424.879 144.512C424.972 144.477 425.072 144.46 425.171 144.464H440.371C440.471 144.46 440.57 144.477 440.663 144.512C440.756 144.548 440.841 144.602 440.913 144.671C440.984 144.74 441.041 144.823 441.08 144.915C441.119 145.006 441.139 145.105 441.139 145.204C441.139 145.304 441.119 145.403 441.08 145.494C441.041 145.586 440.984 145.669 440.913 145.738C440.841 145.807 440.756 145.861 440.663 145.897C440.57 145.932 440.471 145.949 440.371 145.945V145.945Z" fill="#292A2E"/>
<path d="M427.037 226.133H410.352C410.252 226.137 410.153 226.12 410.06 226.085C409.967 226.049 409.882 225.995 409.811 225.926C409.739 225.857 409.682 225.774 409.643 225.682C409.604 225.591 409.584 225.492 409.584 225.392C409.584 225.293 409.604 225.194 409.643 225.103C409.682 225.011 409.739 224.928 409.811 224.859C409.882 224.79 409.967 224.736 410.06 224.7C410.153 224.665 410.252 224.648 410.352 224.652H427.037C427.229 224.659 427.41 224.74 427.543 224.878C427.676 225.016 427.751 225.201 427.751 225.392C427.751 225.584 427.676 225.769 427.543 225.907C427.41 226.045 427.229 226.126 427.037 226.133V226.133Z" fill="#292A2E"/>
<path d="M440.371 239.5H425.171C424.975 239.5 424.786 239.422 424.647 239.283C424.508 239.144 424.43 238.955 424.43 238.759C424.43 238.562 424.508 238.374 424.647 238.235C424.786 238.096 424.975 238.018 425.171 238.018H440.371C440.568 238.018 440.756 238.096 440.895 238.235C441.034 238.374 441.112 238.562 441.112 238.759C441.112 238.955 441.034 239.144 440.895 239.283C440.756 239.422 440.568 239.5 440.371 239.5V239.5Z" fill="#292A2E"/>
<path d="M546.308 159.31H435.54C435.344 159.31 435.155 159.232 435.016 159.093C434.877 158.954 434.799 158.765 434.799 158.569C434.799 158.372 434.877 158.184 435.016 158.045C435.155 157.906 435.344 157.828 435.54 157.828H546.308C546.505 157.828 546.693 157.906 546.832 158.045C546.971 158.184 547.049 158.372 547.049 158.569C547.049 158.765 546.971 158.954 546.832 159.093C546.693 159.232 546.505 159.31 546.308 159.31V159.31Z" fill="#292A2E"/>
<path d="M626.446 159.31H562.346C562.15 159.31 561.961 159.232 561.822 159.093C561.683 158.954 561.605 158.765 561.605 158.569C561.605 158.372 561.683 158.184 561.822 158.045C561.961 157.906 562.15 157.828 562.346 157.828H626.446C626.643 157.828 626.831 157.906 626.97 158.045C627.109 158.184 627.187 158.372 627.187 158.569C627.187 158.765 627.109 158.954 626.97 159.093C626.831 159.232 626.643 159.31 626.446 159.31V159.31Z" fill="#0CBC8B"/>
<path d="M660.845 159.31H641.2C641.004 159.31 640.815 159.232 640.676 159.093C640.537 158.954 640.459 158.765 640.459 158.569C640.459 158.372 640.537 158.184 640.676 158.045C640.815 157.906 641.004 157.828 641.2 157.828H660.847C661.044 157.828 661.232 157.906 661.371 158.045C661.51 158.184 661.588 158.372 661.588 158.569C661.588 158.765 661.51 158.954 661.371 159.093C661.232 159.232 661.044 159.31 660.847 159.31H660.845Z" fill="#292A2E"/>
<path d="M590.757 186.039H435.54C435.441 186.043 435.341 186.026 435.248 185.991C435.155 185.955 435.07 185.901 434.999 185.832C434.927 185.763 434.87 185.68 434.831 185.588C434.792 185.497 434.772 185.398 434.772 185.298C434.772 185.199 434.792 185.1 434.831 185.009C434.87 184.917 434.927 184.834 434.999 184.765C435.07 184.696 435.155 184.642 435.248 184.606C435.341 184.571 435.441 184.554 435.54 184.558H590.757C590.857 184.554 590.956 184.571 591.049 184.606C591.142 184.642 591.227 184.696 591.299 184.765C591.37 184.834 591.427 184.917 591.466 185.009C591.505 185.1 591.525 185.199 591.525 185.298C591.525 185.398 591.505 185.497 591.466 185.588C591.427 185.68 591.37 185.763 591.299 185.832C591.227 185.901 591.142 185.955 591.049 185.991C590.956 186.026 590.857 186.043 590.757 186.039V186.039Z" fill="#292A2E"/>
<path d="M626.446 186.039H606.8C606.701 186.043 606.601 186.026 606.508 185.991C606.415 185.955 606.33 185.901 606.259 185.832C606.187 185.763 606.13 185.68 606.091 185.588C606.052 185.497 606.032 185.398 606.032 185.298C606.032 185.199 606.052 185.1 606.091 185.009C606.13 184.917 606.187 184.834 606.259 184.765C606.33 184.696 606.415 184.642 606.508 184.606C606.601 184.571 606.701 184.554 606.8 184.558H626.448C626.548 184.554 626.647 184.571 626.74 184.606C626.833 184.642 626.918 184.696 626.99 184.765C627.061 184.834 627.118 184.917 627.157 185.009C627.196 185.1 627.216 185.199 627.216 185.298C627.216 185.398 627.196 185.497 627.157 185.588C627.118 185.68 627.061 185.763 626.99 185.832C626.918 185.901 626.833 185.955 626.74 185.991C626.647 186.026 626.548 186.043 626.448 186.039H626.446Z" fill="#367CFF"/>
<path d="M452.225 172.675H435.54C435.344 172.675 435.155 172.597 435.016 172.458C434.877 172.319 434.799 172.13 434.799 171.934C434.799 171.737 434.877 171.549 435.016 171.41C435.155 171.271 435.344 171.193 435.54 171.193H452.225C452.422 171.193 452.61 171.271 452.749 171.41C452.888 171.549 452.966 171.737 452.966 171.934C452.966 172.13 452.888 172.319 452.749 172.458C452.61 172.597 452.422 172.675 452.225 172.675V172.675Z" fill="#0CBC8B"/>
<path d="M582 172.675H468.265C468.069 172.675 467.88 172.597 467.741 172.458C467.602 172.319 467.524 172.13 467.524 171.934C467.524 171.737 467.602 171.549 467.741 171.41C467.88 171.271 468.069 171.193 468.265 171.193H582C582.197 171.193 582.385 171.271 582.524 171.41C582.663 171.549 582.741 171.737 582.741 171.934C582.741 172.13 582.663 172.319 582.524 172.458C582.385 172.597 582.197 172.675 582 172.675V172.675Z" fill="#367CFF"/>
<path d="M660.974 172.675H599.84C599.644 172.675 599.455 172.597 599.316 172.458C599.177 172.319 599.099 172.13 599.099 171.934C599.099 171.737 599.177 171.549 599.316 171.41C599.455 171.271 599.644 171.193 599.84 171.193H660.974C661.171 171.193 661.359 171.271 661.498 171.41C661.637 171.549 661.715 171.737 661.715 171.934C661.715 172.13 661.637 172.319 661.498 172.458C661.359 172.597 661.171 172.675 660.974 172.675V172.675Z" fill="#292A2E"/>
<path d="M546.308 199.4H435.54C435.344 199.4 435.155 199.322 435.016 199.183C434.877 199.044 434.799 198.855 434.799 198.659C434.799 198.462 434.877 198.274 435.016 198.135C435.155 197.996 435.344 197.918 435.54 197.918H546.308C546.505 197.918 546.693 197.996 546.832 198.135C546.971 198.274 547.049 198.462 547.049 198.659C547.049 198.855 546.971 199.044 546.832 199.183C546.693 199.322 546.505 199.4 546.308 199.4V199.4Z" fill="#292A2E"/>
<path d="M596.813 199.4H562.348C562.152 199.4 561.963 199.322 561.824 199.183C561.685 199.044 561.607 198.855 561.607 198.659C561.607 198.462 561.685 198.274 561.824 198.135C561.963 197.996 562.152 197.918 562.348 197.918H596.813C597.01 197.918 597.198 197.996 597.337 198.135C597.476 198.274 597.554 198.462 597.554 198.659C597.554 198.855 597.476 199.044 597.337 199.183C597.198 199.322 597.01 199.4 596.813 199.4V199.4Z" fill="#0CBC8B"/>
<path d="M660.845 199.4H611.564C611.368 199.4 611.179 199.322 611.04 199.183C610.901 199.044 610.823 198.855 610.823 198.659C610.823 198.462 610.901 198.274 611.04 198.135C611.179 197.996 611.368 197.918 611.564 197.918H660.845C661.042 197.918 661.23 197.996 661.369 198.135C661.508 198.274 661.586 198.462 661.586 198.659C661.586 198.855 661.508 199.044 661.369 199.183C661.23 199.322 661.042 199.4 660.845 199.4V199.4Z" fill="#292A2E"/>
<path d="M452.225 212.769H435.54C435.344 212.769 435.155 212.691 435.016 212.552C434.877 212.413 434.799 212.224 434.799 212.028C434.799 211.831 434.877 211.643 435.016 211.504C435.155 211.365 435.344 211.287 435.54 211.287H452.225C452.422 211.287 452.61 211.365 452.749 211.504C452.888 211.643 452.966 211.831 452.966 212.028C452.966 212.224 452.888 212.413 452.749 212.552C452.61 212.691 452.422 212.769 452.225 212.769V212.769Z" fill="#367CFF"/>
<path d="M582 212.769H468.265C468.069 212.769 467.88 212.691 467.741 212.552C467.602 212.413 467.524 212.224 467.524 212.028C467.524 211.831 467.602 211.643 467.741 211.504C467.88 211.365 468.069 211.287 468.265 211.287H582C582.197 211.287 582.385 211.365 582.524 211.504C582.663 211.643 582.741 211.831 582.741 212.028C582.741 212.224 582.663 212.413 582.524 212.552C582.385 212.691 582.197 212.769 582 212.769V212.769Z" fill="#0CBC8B"/>
<path d="M543.344 266.228H432.577C432.381 266.228 432.192 266.15 432.053 266.011C431.914 265.872 431.836 265.683 431.836 265.487C431.836 265.29 431.914 265.102 432.053 264.963C432.192 264.824 432.381 264.746 432.577 264.746H543.344C543.541 264.746 543.729 264.824 543.868 264.963C544.007 265.102 544.085 265.29 544.085 265.487C544.085 265.683 544.007 265.872 543.868 266.011C543.729 266.15 543.541 266.228 543.344 266.228Z" fill="#292A2E"/>
<path d="M623.483 266.228H559.383C559.187 266.228 558.998 266.15 558.859 266.011C558.72 265.872 558.642 265.683 558.642 265.487C558.642 265.29 558.72 265.102 558.859 264.963C558.998 264.824 559.187 264.746 559.383 264.746H623.483C623.68 264.746 623.868 264.824 624.007 264.963C624.146 265.102 624.224 265.29 624.224 265.487C624.224 265.683 624.146 265.872 624.007 266.011C623.868 266.15 623.68 266.228 623.483 266.228Z" fill="#367CFF"/>
<path d="M478.9 252.863H432.577C432.381 252.863 432.192 252.785 432.053 252.646C431.914 252.507 431.836 252.318 431.836 252.122C431.836 251.925 431.914 251.737 432.053 251.598C432.192 251.459 432.381 251.381 432.577 251.381H478.9C479.097 251.381 479.285 251.459 479.424 251.598C479.563 251.737 479.641 251.925 479.641 252.122C479.641 252.318 479.563 252.507 479.424 252.646C479.285 252.785 479.097 252.863 478.9 252.863V252.863Z" fill="#0CBC8B"/>
<path d="M579.033 252.863H494.933C494.737 252.863 494.548 252.785 494.409 252.646C494.27 252.507 494.192 252.318 494.192 252.122C494.192 251.925 494.27 251.737 494.409 251.598C494.548 251.459 494.737 251.381 494.933 251.381H579.033C579.23 251.381 579.418 251.459 579.557 251.598C579.696 251.737 579.774 251.925 579.774 252.122C579.774 252.318 579.696 252.507 579.557 252.646C579.418 252.785 579.23 252.863 579.033 252.863V252.863Z" fill="#367CFF"/>
<path d="M658.011 252.863H596.877C596.681 252.863 596.492 252.785 596.353 252.646C596.214 252.507 596.136 252.318 596.136 252.122C596.136 251.925 596.214 251.737 596.353 251.598C596.492 251.459 596.681 251.381 596.877 251.381H658.011C658.208 251.381 658.396 251.459 658.535 251.598C658.674 251.737 658.752 251.925 658.752 252.122C658.752 252.318 658.674 252.507 658.535 252.646C658.396 252.785 658.208 252.863 658.011 252.863V252.863Z" fill="#292A2E"/>
<path d="M587.794 292.957H432.577C432.381 292.957 432.192 292.879 432.053 292.74C431.914 292.601 431.836 292.412 431.836 292.216C431.836 292.019 431.914 291.831 432.053 291.692C432.192 291.553 432.381 291.475 432.577 291.475H587.794C587.991 291.475 588.179 291.553 588.318 291.692C588.457 291.831 588.535 292.019 588.535 292.216C588.535 292.412 588.457 292.601 588.318 292.74C588.179 292.879 587.991 292.957 587.794 292.957Z" fill="#367CFF"/>
<path d="M633.483 292.957H603.835C603.639 292.957 603.45 292.879 603.311 292.74C603.172 292.601 603.094 292.412 603.094 292.216C603.094 292.019 603.172 291.831 603.311 291.692C603.45 291.553 603.639 291.475 603.835 291.475H633.483C633.68 291.475 633.868 291.553 634.007 291.692C634.146 291.831 634.224 292.019 634.224 292.216C634.224 292.412 634.146 292.601 634.007 292.74C633.868 292.879 633.68 292.957 633.483 292.957V292.957Z" fill="#292A2E"/>
<path d="M449.261 279.592H432.577C432.478 279.596 432.378 279.579 432.285 279.543C432.192 279.508 432.107 279.454 432.036 279.385C431.964 279.316 431.907 279.233 431.868 279.141C431.829 279.05 431.809 278.951 431.809 278.851C431.809 278.752 431.829 278.653 431.868 278.562C431.907 278.47 431.964 278.387 432.036 278.318C432.107 278.249 432.192 278.195 432.285 278.159C432.378 278.124 432.478 278.107 432.577 278.111H449.261C449.361 278.107 449.46 278.124 449.553 278.159C449.646 278.195 449.731 278.249 449.803 278.318C449.874 278.387 449.931 278.47 449.97 278.562C450.009 278.653 450.029 278.752 450.029 278.851C450.029 278.951 450.009 279.05 449.97 279.141C449.931 279.233 449.874 279.316 449.803 279.385C449.731 279.454 449.646 279.508 449.553 279.543C449.46 279.579 449.361 279.596 449.261 279.592V279.592Z" fill="#367CFF"/>
<path d="M579.033 279.592H465.3C465.201 279.596 465.101 279.579 465.008 279.543C464.915 279.508 464.83 279.454 464.759 279.385C464.687 279.316 464.63 279.233 464.591 279.141C464.552 279.05 464.532 278.951 464.532 278.851C464.532 278.752 464.552 278.653 464.591 278.562C464.63 278.47 464.687 278.387 464.759 278.318C464.83 278.249 464.915 278.195 465.008 278.159C465.101 278.124 465.201 278.107 465.3 278.111H579.033C579.133 278.107 579.232 278.124 579.325 278.159C579.418 278.195 579.503 278.249 579.575 278.318C579.646 278.387 579.703 278.47 579.742 278.562C579.781 278.653 579.801 278.752 579.801 278.851C579.801 278.951 579.781 279.05 579.742 279.141C579.703 279.233 579.646 279.316 579.575 279.385C579.503 279.454 579.418 279.508 579.325 279.543C579.232 279.579 579.133 279.596 579.033 279.592V279.592Z" fill="#292A2E"/>
<path d="M658.011 279.592H596.877C596.778 279.596 596.678 279.579 596.585 279.543C596.492 279.508 596.407 279.454 596.336 279.385C596.264 279.316 596.207 279.233 596.168 279.141C596.129 279.05 596.109 278.951 596.109 278.851C596.109 278.752 596.129 278.653 596.168 278.562C596.207 278.47 596.264 278.387 596.336 278.318C596.407 278.249 596.492 278.195 596.585 278.159C596.678 278.124 596.778 278.107 596.877 278.111H658.011C658.111 278.107 658.21 278.124 658.303 278.159C658.396 278.195 658.481 278.249 658.553 278.318C658.624 278.387 658.681 278.47 658.72 278.562C658.759 278.653 658.779 278.752 658.779 278.851C658.779 278.951 658.759 279.05 658.72 279.141C658.681 279.233 658.624 279.316 658.553 279.385C658.481 279.454 658.396 279.508 658.303 279.543C658.21 279.579 658.111 279.596 658.011 279.592V279.592Z" fill="#0CBC8B"/>
<path d="M543.344 306.322H432.577C432.381 306.322 432.192 306.244 432.053 306.105C431.914 305.966 431.836 305.777 431.836 305.581C431.836 305.384 431.914 305.196 432.053 305.057C432.192 304.918 432.381 304.84 432.577 304.84H543.344C543.541 304.84 543.729 304.918 543.868 305.057C544.007 305.196 544.085 305.384 544.085 305.581C544.085 305.777 544.007 305.966 543.868 306.105C543.729 306.244 543.541 306.322 543.344 306.322V306.322Z" fill="#0CBC8B"/>
<path d="M593.85 306.322H559.385C559.189 306.322 559 306.244 558.861 306.105C558.722 305.966 558.644 305.777 558.644 305.581C558.644 305.384 558.722 305.196 558.861 305.057C559 304.918 559.189 304.84 559.385 304.84H593.85C594.047 304.84 594.235 304.918 594.374 305.057C594.513 305.196 594.591 305.384 594.591 305.581C594.591 305.777 594.513 305.966 594.374 306.105C594.235 306.244 594.047 306.322 593.85 306.322V306.322Z" fill="#292A2E"/>
<path d="M657.882 306.322H608.6C608.404 306.322 608.215 306.244 608.076 306.105C607.937 305.966 607.859 305.777 607.859 305.581C607.859 305.384 607.937 305.196 608.076 305.057C608.215 304.918 608.404 304.84 608.6 304.84H657.881C658.078 304.84 658.266 304.918 658.405 305.057C658.544 305.196 658.622 305.384 658.622 305.581C658.622 305.777 658.544 305.966 658.405 306.105C658.266 306.244 658.078 306.322 657.881 306.322H657.882Z" fill="#367CFF"/>
<path d="M381.97 313.622C381.873 313.622 381.776 313.603 381.686 313.566C381.597 313.529 381.515 313.474 381.446 313.405C381.377 313.337 381.323 313.255 381.285 313.165C381.248 313.075 381.229 312.979 381.229 312.882V109.252C381.229 109.055 381.307 108.867 381.446 108.728C381.585 108.589 381.773 108.511 381.97 108.511C382.167 108.511 382.355 108.589 382.494 108.728C382.633 108.867 382.711 109.055 382.711 109.252V312.882C382.711 312.979 382.692 313.075 382.655 313.165C382.617 313.255 382.563 313.337 382.494 313.405C382.425 313.474 382.343 313.529 382.253 313.566C382.164 313.603 382.067 313.622 381.97 313.622Z" fill="#292A2E"/>
<path d="M348.086 118.505H316C315.804 118.505 315.615 118.427 315.476 118.288C315.337 118.149 315.259 117.96 315.259 117.764C315.259 117.567 315.337 117.379 315.476 117.24C315.615 117.101 315.804 117.023 316 117.023H348.082C348.279 117.023 348.467 117.101 348.606 117.24C348.745 117.379 348.823 117.567 348.823 117.764C348.823 117.96 348.745 118.149 348.606 118.288C348.467 118.427 348.279 118.505 348.082 118.505H348.086Z" fill="#292A2E"/>
<path d="M338.422 133.117H316C315.9 133.121 315.801 133.104 315.708 133.069C315.615 133.033 315.53 132.979 315.459 132.91C315.387 132.841 315.33 132.758 315.291 132.666C315.252 132.575 315.232 132.476 315.232 132.376C315.232 132.277 315.252 132.178 315.291 132.087C315.33 131.995 315.387 131.912 315.459 131.843C315.53 131.774 315.615 131.72 315.708 131.684C315.801 131.649 315.9 131.632 316 131.636H338.418C338.61 131.643 338.791 131.724 338.924 131.862C339.057 132 339.132 132.185 339.132 132.376C339.132 132.568 339.057 132.753 338.924 132.891C338.791 133.029 338.61 133.11 338.418 133.117H338.422Z" fill="#292A2E"/>
<path d="M358.135 147.73H316C315.804 147.73 315.615 147.652 315.476 147.513C315.337 147.374 315.259 147.185 315.259 146.989C315.259 146.792 315.337 146.604 315.476 146.465C315.615 146.326 315.804 146.248 316 146.248H358.131C358.328 146.248 358.516 146.326 358.655 146.465C358.794 146.604 358.872 146.792 358.872 146.989C358.872 147.185 358.794 147.374 358.655 147.513C358.516 147.652 358.328 147.73 358.131 147.73H358.135Z" fill="#292A2E"/>
<path d="M365.994 162.342H330.821C330.722 162.346 330.622 162.329 330.529 162.293C330.436 162.258 330.351 162.204 330.28 162.135C330.208 162.066 330.151 161.983 330.112 161.891C330.073 161.8 330.053 161.701 330.053 161.601C330.053 161.502 330.073 161.403 330.112 161.312C330.151 161.22 330.208 161.137 330.28 161.068C330.351 160.999 330.436 160.945 330.529 160.909C330.622 160.874 330.722 160.857 330.821 160.861H365.994C366.094 160.857 366.193 160.874 366.286 160.909C366.379 160.945 366.464 160.999 366.536 161.068C366.607 161.137 366.664 161.22 366.703 161.312C366.742 161.403 366.762 161.502 366.762 161.601C366.762 161.701 366.742 161.8 366.703 161.891C366.664 161.983 366.607 162.066 366.536 162.135C366.464 162.204 366.379 162.258 366.286 162.293C366.193 162.329 366.094 162.346 365.994 162.342V162.342Z" fill="#292A2E"/>
<path d="M348.987 176.955H330.821C330.625 176.955 330.436 176.877 330.297 176.738C330.158 176.599 330.08 176.41 330.08 176.214C330.08 176.017 330.158 175.829 330.297 175.69C330.436 175.551 330.625 175.473 330.821 175.473H348.987C349.184 175.473 349.372 175.551 349.511 175.69C349.65 175.829 349.728 176.017 349.728 176.214C349.728 176.41 349.65 176.599 349.511 176.738C349.372 176.877 349.184 176.955 348.987 176.955V176.955Z" fill="#292A2E"/>
<path d="M362.9 191.568H330.821C330.625 191.568 330.436 191.49 330.297 191.351C330.158 191.212 330.08 191.023 330.08 190.827C330.08 190.63 330.158 190.442 330.297 190.303C330.436 190.164 330.625 190.086 330.821 190.086H362.9C363.097 190.086 363.285 190.164 363.424 190.303C363.563 190.442 363.641 190.63 363.641 190.827C363.641 191.023 363.563 191.212 363.424 191.351C363.285 191.49 363.097 191.568 362.9 191.568Z" fill="#292A2E"/>
<path d="M340.741 206.18H316C315.804 206.18 315.615 206.102 315.476 205.963C315.337 205.824 315.259 205.635 315.259 205.439C315.259 205.242 315.337 205.054 315.476 204.915C315.615 204.776 315.804 204.698 316 204.698H340.737C340.934 204.698 341.122 204.776 341.261 204.915C341.4 205.054 341.478 205.242 341.478 205.439C341.478 205.635 341.4 205.824 341.261 205.963C341.122 206.102 340.934 206.18 340.737 206.18H340.741Z" fill="#292A2E"/>
<path d="M332.237 220.793H316C315.804 220.793 315.615 220.715 315.476 220.576C315.337 220.437 315.259 220.248 315.259 220.052C315.259 219.855 315.337 219.667 315.476 219.528C315.615 219.389 315.804 219.311 316 219.311H332.233C332.43 219.311 332.618 219.389 332.757 219.528C332.896 219.667 332.974 219.855 332.974 220.052C332.974 220.248 332.896 220.437 332.757 220.576C332.618 220.715 332.43 220.793 332.233 220.793H332.237Z" fill="#292A2E"/>
<path d="M48.743 588.172C42.7018 588.171 36.7503 586.71 31.3949 583.915C26.0395 581.119 21.4389 577.071 17.9844 572.115C14.53 567.159 12.3241 561.441 11.5545 555.449C10.7848 549.457 11.4743 543.368 13.564 537.7C15.685 531.945 70.089 391.507 79.564 367.1L145.034 405.2C139.71 418.924 120.416 470.945 104.916 512.851L130.667 510.051L138.767 578.612L52.8 587.953C51.4526 588.099 50.0983 588.172 48.743 588.172V588.172Z" fill="#367CFF"/>
<path d="M262.888 337.9C262.658 337.87 256.358 361.58 207.188 357.89C173.148 355.34 164.848 332.17 164.068 332.17C167.738 331.39 173.698 330.58 175.328 329.71C180.688 326.83 184.592 323.324 186.558 315.8C188.095 309.916 188.878 287.264 188.878 275.9L241.258 287.67C240.528 300.49 235.418 330.21 253.328 335.47C256.308 336.335 259.518 337.135 262.888 337.9Z" fill="#E98862"/>
<path d="M239.445 312.869C218.796 314.499 192.27 305.78 187.231 278.23L182.685 253.372C177.646 225.822 188.032 200.842 213.972 196.098C239.911 191.354 263.385 210.141 268.423 237.691L270.436 248.697C272.369 259.267 276.288 309.963 239.445 312.869Z" fill="#E98862"/>
<path d="M141.7 335.979C123.144 337.356 104.223 339.365 90.569 352.006C74.125 367.23 71.145 385.949 81.636 437.463C90.662 481.788 87.081 501.157 93.12 582.949C93.298 585.358 93.679 590.342 93.679 590.342L292.179 590.013C292.179 590.013 310.779 481.496 321.048 431.445C328.857 393.394 349.369 347.201 262.884 337.892C262.66 337.867 193.3 332.151 141.7 335.979Z" fill="#367CFF"/>
<path d="M93.683 590.843C93.5536 590.843 93.4293 590.793 93.336 590.703C93.2428 590.613 93.1879 590.491 93.183 590.362L86.962 428.887C86.9595 428.821 86.9699 428.756 86.9927 428.694C87.0155 428.632 87.0502 428.576 87.0949 428.528C87.1396 428.479 87.1933 428.44 87.2531 428.413C87.3128 428.386 87.3773 428.37 87.443 428.368C87.5093 428.363 87.576 428.371 87.6388 428.393C87.7016 428.415 87.7592 428.449 87.808 428.495C87.8567 428.54 87.8956 428.595 87.9221 428.656C87.9486 428.717 87.9622 428.782 87.962 428.849L94.183 590.324C94.1879 590.456 94.1399 590.585 94.0498 590.682C93.9596 590.78 93.8345 590.837 93.702 590.842L93.683 590.843Z" fill="#0C0C0C"/>
<path d="M412.2 393.633L426.146 362.35C426.452 361.663 426.899 361.047 427.456 360.541C428.014 360.036 428.67 359.652 429.384 359.414C430.098 359.176 430.854 359.09 431.603 359.16C432.352 359.231 433.079 359.456 433.736 359.823C434.929 360.537 435.815 361.669 436.221 363C436.626 364.33 436.523 365.764 435.931 367.023L432.941 373.731L452.027 356.953C454.116 355.053 457.897 354.053 459.877 356.537C460.701 357.443 461.194 358.602 461.275 359.825C461.356 361.047 461.02 362.261 460.322 363.268C460.345 363.282 460.366 363.3 460.385 363.32C460.397 363.337 460.408 363.355 460.417 363.374L463.639 360.441C464.236 359.898 464.947 359.495 465.719 359.261C466.492 359.028 467.307 358.97 468.104 359.091C468.902 359.212 469.663 359.51 470.331 359.962C470.999 360.415 471.558 361.011 471.967 361.707C472.589 362.816 472.811 364.104 472.596 365.357C472.381 366.61 471.743 367.751 470.787 368.59L469.416 369.839C469.433 369.895 469.441 369.954 469.438 370.013C470.56 369.385 471.869 369.176 473.131 369.424C474.393 369.672 475.525 370.361 476.326 371.368C477.169 372.495 477.557 373.899 477.411 375.299C477.265 376.699 476.597 377.993 475.539 378.922L472.134 382.022C472.213 382.012 472.293 382.021 472.368 382.048C472.443 382.076 472.51 382.12 472.564 382.179C472.625 382.251 472.663 382.34 472.674 382.434C473.829 382.152 475.044 382.257 476.133 382.733C477.223 383.208 478.125 384.029 478.703 385.068C479.288 386.172 479.482 387.441 479.256 388.669C479.029 389.897 478.394 391.013 477.454 391.836L448.719 417.997C444.699 421.657 439.677 424.033 434.298 424.82C428.919 425.607 423.427 424.77 418.527 422.416V422.416C414.301 420.386 411.034 416.789 409.418 412.389C407.803 407.988 407.967 403.131 409.876 398.85L412.2 393.633Z" fill="#E98862"/>
<g opacity="0.2">
<path opacity="0.2" d="M441.508 379.965C441.597 380.061 441.72 380.119 441.851 380.126C441.982 380.133 442.11 380.088 442.208 380.001L460.339 364.022C460.439 363.934 460.499 363.81 460.508 363.678C460.516 363.545 460.471 363.415 460.384 363.315C460.296 363.216 460.172 363.155 460.039 363.147C459.907 363.138 459.777 363.183 459.677 363.271L441.547 379.25C441.498 379.293 441.457 379.346 441.428 379.405C441.399 379.464 441.382 379.528 441.378 379.593C441.374 379.659 441.383 379.725 441.404 379.787C441.425 379.849 441.459 379.906 441.502 379.956L441.508 379.965Z" fill="#0C0C0C"/>
</g>
<g opacity="0.2">
<path opacity="0.2" d="M448.335 388.155C448.424 388.251 448.547 388.309 448.678 388.316C448.809 388.323 448.937 388.278 449.035 388.191L469.269 370.359C469.318 370.315 469.358 370.263 469.387 370.204C469.416 370.145 469.433 370.08 469.437 370.015C469.441 369.949 469.433 369.884 469.411 369.822C469.39 369.759 469.356 369.702 469.313 369.653C469.223 369.557 469.1 369.499 468.969 369.491C468.838 369.482 468.708 369.524 468.607 369.608L448.373 387.441C448.324 387.484 448.284 387.537 448.255 387.596C448.226 387.655 448.209 387.719 448.205 387.785C448.201 387.85 448.209 387.916 448.231 387.978C448.252 388.04 448.286 388.098 448.329 388.147L448.335 388.155Z" fill="#0C0C0C"/>
</g>
<g opacity="0.2">
<path opacity="0.2" d="M455.678 397.069C455.767 397.165 455.89 397.223 456.021 397.23C456.152 397.237 456.28 397.192 456.378 397.105L472.518 382.88C472.617 382.792 472.678 382.668 472.686 382.536C472.694 382.404 472.65 382.273 472.562 382.174C472.474 382.074 472.351 382.014 472.218 382.006C472.086 381.997 471.955 382.042 471.856 382.13L455.716 396.355C455.667 396.398 455.627 396.451 455.598 396.51C455.569 396.569 455.552 396.633 455.548 396.699C455.544 396.764 455.553 396.83 455.574 396.892C455.595 396.954 455.629 397.012 455.672 397.061L455.678 397.069Z" fill="#0C0C0C"/>
</g>
<path d="M258.588 284.633C255.032 266.765 253.401 254.844 253.588 242.268C258.596 233.482 257.28 223.399 256.141 219.041C257.576 219.859 259.078 220.554 260.63 221.119C261.352 221.37 262.13 221.41 262.874 221.233C263.617 221.057 264.295 220.673 264.828 220.124C265.36 219.576 265.725 218.888 265.88 218.139C266.034 217.391 265.972 216.614 265.7 215.9C261.824 205.864 251.861 186.362 231.294 179.827C226.117 177.812 212.894 175.267 195.347 177.674C180.419 179.722 146.621 193.884 141.364 235.311V235.334C141.19 236.708 134.657 271.878 127.613 290.192C118.144 314.811 104.849 322.461 105.186 350.865C105.62 387.403 172.786 392.265 213.306 389.533C253.826 386.801 276.437 373.478 276.73 347.147C277.049 317.641 265.7 320.381 258.588 284.633Z" fill="#0A0A0A"/>
<path d="M258.6 271.963C250.717 273.405 242.784 266.14 241.343 258.257C239.902 250.374 243.494 242.268 253.587 242.268L258.6 271.963Z" fill="#E98862"/>
<path d="M343.391 582.5C335.462 582.499 327.737 579.985 321.325 575.32C314.913 570.656 310.143 564.08 307.701 556.536L255.6 395.4L326.962 372.326L354.362 457.08L401.715 381.775L465.21 421.7L375.128 564.96C371.752 570.328 367.07 574.753 361.52 577.82C355.97 580.888 349.733 582.498 343.391 582.5V582.5Z" fill="#367CFF"/>
<path d="M301.349 538.006C301.318 538.006 301.287 538.003 301.257 537.998C301.127 537.974 301.011 537.898 300.936 537.789C300.861 537.68 300.833 537.545 300.857 537.415L318.568 441.274C318.58 441.209 318.604 441.148 318.64 441.092C318.676 441.037 318.722 440.99 318.776 440.952C318.83 440.915 318.891 440.889 318.955 440.875C319.02 440.861 319.086 440.86 319.151 440.872C319.215 440.884 319.277 440.909 319.332 440.944C319.387 440.98 319.435 441.026 319.472 441.08C319.509 441.135 319.535 441.195 319.549 441.26C319.563 441.324 319.564 441.39 319.552 441.455L301.84 537.6C301.818 537.714 301.757 537.817 301.668 537.891C301.578 537.965 301.465 538.006 301.349 538.006Z" fill="#0C0C0C"/>
<path d="M360.736 479.771C360.625 479.771 360.518 479.734 360.43 479.667C360.343 479.599 360.28 479.504 360.252 479.397L354.352 456.671C354.319 456.542 354.338 456.406 354.405 456.292C354.472 456.178 354.582 456.095 354.711 456.061C354.839 456.028 354.975 456.047 355.09 456.114C355.204 456.182 355.287 456.292 355.32 456.42L361.22 479.146C361.239 479.22 361.241 479.297 361.226 479.372C361.21 479.447 361.178 479.517 361.131 479.577C361.084 479.638 361.024 479.687 360.955 479.72C360.887 479.754 360.811 479.771 360.735 479.771H360.736Z" fill="#0C0C0C"/>
<path d="M762.121 475.96H566.615C565.392 475.96 564.182 475.7 563.066 475.199C561.951 474.697 560.954 473.964 560.142 473.049C559.33 472.134 558.721 471.057 558.356 469.89C557.99 468.722 557.877 467.491 558.022 466.276L563.253 422.624C563.505 420.522 564.519 418.585 566.102 417.18C567.686 415.776 569.729 415 571.846 415H762.121C764.416 415 766.617 415.912 768.24 417.535C769.863 419.158 770.775 421.359 770.775 423.654V467.307C770.774 469.602 769.863 471.803 768.24 473.425C766.617 475.048 764.416 475.96 762.121 475.96V475.96Z" fill="#292A2E"/>
<path d="M619.5 476.37L627.861 444.285C628.045 443.58 628.08 442.844 627.964 442.125C627.848 441.405 627.584 440.718 627.187 440.106C626.791 439.495 626.272 438.972 625.662 438.573C625.053 438.173 624.367 437.905 623.648 437.785C617.699 436.661 616.974 444.857 615.848 448.785L611.555 424.562C610.9 418.028 602.116 417.814 601.466 424.324C601.419 424.316 601.372 424.324 601.33 424.347C601.537 412.447 588.363 413.368 590.618 423.797C590.57 423.829 590.529 423.869 590.495 423.915C588.295 418.146 579.278 420.845 580.495 426.964L581.195 431.364C581.153 431.319 581.102 431.284 581.046 431.259C580.991 431.234 580.93 431.221 580.869 431.219C580.808 431.218 580.747 431.229 580.69 431.251C580.633 431.273 580.581 431.306 580.537 431.349C577.512 427.066 570.096 430.208 571.237 435.57L577.155 472.721C580.54 496.749 615.9 504.812 619.5 476.37Z" fill="#E98862"/>
<g opacity="0.2">
<path opacity="0.2" d="M605.6 448.318C604.3 448.196 601.52 425.589 601 424.882C600.978 424.755 601.007 424.625 601.081 424.52C601.155 424.415 601.267 424.343 601.394 424.321C601.52 424.299 601.65 424.328 601.755 424.402C601.86 424.476 601.932 424.588 601.954 424.715L606 447.756C606.011 447.819 606.01 447.884 605.996 447.946C605.981 448.009 605.955 448.068 605.918 448.121C605.88 448.173 605.833 448.217 605.779 448.251C605.724 448.285 605.663 448.308 605.6 448.318Z" fill="#0C0C0C"/>
</g>
<g opacity="0.2">
<path opacity="0.2" d="M595.483 450.386C595.357 450.405 595.229 450.373 595.127 450.298C595.024 450.224 594.955 450.111 594.934 449.986L590.411 424.272C590.389 424.145 590.418 424.015 590.492 423.91C590.565 423.805 590.678 423.733 590.804 423.711C592.131 423.59 595.359 449.278 595.888 449.819C595.9 449.883 595.898 449.948 595.884 450.012C595.87 450.075 595.843 450.135 595.806 450.188C595.768 450.241 595.72 450.286 595.664 450.32C595.609 450.354 595.547 450.376 595.483 450.386V450.386Z" fill="#0C0C0C"/>
</g>
<g opacity="0.2">
<path opacity="0.2" d="M584.543 452.689C584.417 452.708 584.289 452.676 584.187 452.601C584.084 452.527 584.015 452.414 583.994 452.289L580.386 431.777C580.368 431.652 580.4 431.526 580.473 431.424C580.547 431.322 580.658 431.253 580.782 431.232C580.905 431.21 581.033 431.237 581.137 431.308C581.241 431.378 581.313 431.487 581.339 431.61L584.948 452.121C584.96 452.185 584.959 452.251 584.944 452.314C584.93 452.378 584.903 452.438 584.866 452.491C584.828 452.544 584.78 452.588 584.724 452.622C584.669 452.657 584.607 452.679 584.543 452.689V452.689Z" fill="#0C0C0C"/>
</g>
<path d="M322.3 590.843H89.893L75.123 477.363C74.8266 475.086 75.0193 472.772 75.6883 470.575C76.3572 468.379 77.487 466.35 79.0022 464.625C80.5175 462.899 82.3833 461.517 84.4751 460.57C86.567 459.623 88.8368 459.133 91.133 459.133H290.963C294.885 459.132 298.674 460.558 301.622 463.146C304.57 465.733 306.475 469.305 306.983 473.194L322.3 590.843Z" fill="white"/>
<path d="M308.193 473.043C307.641 468.861 305.59 465.022 302.421 462.237C299.252 459.453 295.181 457.913 290.963 457.903H91.133C88.9379 457.905 86.763 458.322 84.723 459.133C83.86 459.472 83.0271 459.884 82.233 460.363C79.3217 462.098 76.9817 464.648 75.5016 467.697C74.0214 470.746 73.4657 474.162 73.903 477.523L88.663 590.843H91.133L76.343 477.214C76.0687 475.11 76.2463 472.971 76.864 470.941C77.4816 468.911 78.5251 467.036 79.9248 465.442C81.3245 463.847 83.0483 462.569 84.981 461.693C86.9138 460.817 89.0111 460.364 91.133 460.363H290.963C294.584 460.372 298.078 461.694 300.799 464.082C303.521 466.47 305.284 469.764 305.763 473.353L321.063 590.843H323.543L308.193 473.043Z" fill="#292A2E"/>
<path d="M308.743 590.843H76.333L61.563 477.363C61.2661 475.086 61.4585 472.772 62.1273 470.575C62.796 468.378 63.9258 466.349 65.4411 464.624C66.9564 462.898 68.8224 461.516 70.9145 460.569C73.0066 459.622 75.2766 459.133 77.573 459.133H277.4C281.321 459.133 285.108 460.56 288.054 463.147C291 465.735 292.904 469.306 293.41 473.194L308.743 590.843Z" fill="#292A2E"/>
<path d="M294.633 473.043C294.291 470.436 293.364 467.941 291.919 465.745C290.475 463.549 288.551 461.709 286.293 460.363C285.498 459.886 284.665 459.474 283.803 459.133C281.767 458.321 279.595 457.904 277.403 457.903H77.573C75.1014 457.902 72.6579 458.428 70.406 459.447C68.1541 460.466 66.1456 461.954 64.5147 463.811C62.8837 465.668 61.6679 467.852 60.9485 470.216C60.2291 472.581 60.0227 475.072 60.343 477.523L75.093 590.843H77.573L62.783 477.214C62.5087 475.11 62.6863 472.971 63.304 470.941C63.9216 468.911 64.9651 467.036 66.3648 465.442C67.7646 463.847 69.4883 462.569 71.4211 461.693C73.3538 460.817 75.4511 460.364 77.573 460.363H277.4C281.021 460.372 284.515 461.694 287.236 464.082C289.958 466.47 291.721 469.764 292.2 473.353L307.5 590.843H309.98L294.633 473.043Z" fill="#292A2E"/>
<path d="M703.232 342.853C703.461 342.823 706.006 385.044 755.053 381.363C789.009 378.819 801.116 342.794 801.894 342.794C798.233 342.016 792.068 340.884 790.442 340.016C785.095 337.144 777.479 334.154 775.756 323.771C774.763 317.786 776.448 287.171 775.929 281.115L724.808 292.748C725.536 305.537 730.634 335.183 712.768 340.429C709.8 341.3 706.594 342.1 703.232 342.853Z" fill="#E98862"/>
<path d="M726.246 312.694C746.83 314.283 773.254 305.548 778.229 278.081L782.718 253.297C787.693 225.829 777.299 200.95 751.437 196.266C725.575 191.581 702.212 210.347 697.237 237.814L695.249 248.786C694.632 252.565 694.274 256.382 694.177 260.21C693.844 270.325 693.377 285.71 698.377 297.01C703.107 307.683 713.1 311.679 726.246 312.694Z" fill="#E98862"/>
<path d="M772.407 194.858C764.236 192.31 755.761 190.868 747.207 190.571C746.378 187.306 744.531 184.771 741.815 183.707C737.293 181.94 731.768 184.786 728.093 190.269C726.05 187.137 723.281 184.315 719.611 183.169C709.487 180.016 708.984 194.56 708.984 194.56C708.984 194.56 692.931 178.719 692.429 198.923C691.823 223.368 696.313 230.537 699.591 232.347C706.063 235.921 710.883 235.317 713.444 240.575C721.2 256.498 713.598 301.349 722.573 306.965C736.323 315.565 764.486 315.865 773.634 315.211C777.151 314.959 780.443 310.882 781.925 307.681C786.709 297.349 797.379 273.925 800.348 264.238C805.828 246.364 805.415 205.636 772.407 194.858Z" fill="#0C0C0C"/>
<path d="M716.428 290.946C724.368 290.084 729.883 280.89 729.021 272.946C728.159 265.002 721.247 261.326 713.306 262.187L709.792 267.952L709.601 291.684L716.428 290.946Z" fill="#E98862"/>
<path d="M849.069 584.221L849.315 584.235C849.315 584.235 849.138 579.494 849.069 584.221Z" fill="#333333"/>
<path d="M632.721 436.273C634.272 454.486 641.813 568.111 643.303 590.544H848.721C849.881 570.311 855.092 481.844 859.492 442.274C863.692 404.519 871.934 385.616 865.892 374.454C856.021 356.212 829.047 345.67 810.655 343.18C799.423 341.66 797.109 340.57 792.531 340.57H713.441C705.92 340.57 657.892 347.816 648.047 355.055C620.8 375.091 629.431 397.678 632.721 436.273Z" fill="#367CFF"/>
<path d="M892.58 589.354C898.622 589.354 904.575 587.894 909.931 585.098C915.288 582.302 919.889 578.254 923.344 573.297C926.799 568.34 929.005 562.622 929.775 556.629C930.544 550.636 929.854 544.546 927.763 538.877C925.641 533.122 875.889 401.377 866.418 376.963L796.285 405.38C801.61 419.105 820.906 471.131 836.407 513.04L810.654 510.24L802.548 584.807L888.522 589.133C889.87 589.28 891.224 589.354 892.58 589.354V589.354Z" fill="#367CFF"/>
<path d="M852.555 443.039L847.508 590.526L848.873 590.572L853.92 443.086L852.555 443.039Z" fill="#0C0C0C"/>
<path d="M603.007 589.354C596.965 589.354 591.012 587.894 585.656 585.098C580.3 582.302 575.698 578.253 572.243 573.297C568.789 568.34 566.583 562.621 565.813 556.629C565.044 550.636 565.734 544.546 567.825 538.877C569.946 533.122 621.783 400.794 631.254 376.383L699.302 405.383C693.977 419.108 674.681 471.134 659.18 513.043L684.933 510.243L693.039 584.81L607.065 589.136C605.717 589.282 604.363 589.355 603.007 589.354V589.354Z" fill="#367CFF"/>
<path d="M659.019 504.3C658.901 504.3 658.785 504.272 658.68 504.219C658.574 504.165 658.483 504.088 658.414 503.993C658.344 503.898 658.298 503.787 658.279 503.671C658.26 503.554 658.269 503.435 658.305 503.323L676.512 446C676.54 445.903 676.586 445.814 676.649 445.736C676.712 445.657 676.79 445.593 676.879 445.545C676.967 445.498 677.064 445.469 677.164 445.46C677.264 445.45 677.365 445.461 677.46 445.492C677.556 445.522 677.644 445.571 677.72 445.636C677.797 445.702 677.859 445.781 677.904 445.871C677.949 445.961 677.975 446.059 677.982 446.159C677.988 446.259 677.974 446.359 677.941 446.454L659.734 503.771C659.687 503.924 659.592 504.058 659.463 504.153C659.335 504.248 659.179 504.3 659.019 504.3V504.3Z" fill="#0C0C0C"/>
<path d="M892.34 477.363L877.561 590.843H645.16L660.481 473.194C660.988 469.306 662.892 465.735 665.838 463.148C668.784 460.561 672.57 459.134 676.491 459.133H876.321C878.618 459.132 880.889 459.62 882.982 460.567C885.075 461.513 886.942 462.895 888.458 464.621C889.974 466.346 891.105 468.376 891.774 470.573C892.444 472.77 892.637 475.085 892.34 477.363V477.363Z" fill="white"/>
<path d="M889.38 463.813C888.186 462.453 886.786 461.289 885.231 460.363C884.433 459.884 883.597 459.473 882.731 459.133C880.691 458.322 878.516 457.905 876.321 457.903H676.491C672.273 457.914 668.203 459.455 665.034 462.239C661.866 465.023 659.815 468.862 659.261 473.043L643.92 590.843H646.4L661.7 473.353C662.176 469.764 663.937 466.47 666.657 464.081C669.377 461.692 672.871 460.371 676.491 460.363H876.321C878.443 460.365 880.54 460.819 882.473 461.695C884.406 462.571 886.13 463.849 887.53 465.443C888.93 467.037 889.975 468.912 890.594 470.941C891.213 472.971 891.393 475.109 891.121 477.214L876.321 590.843H878.801L893.551 477.523C893.871 475.072 893.664 472.582 892.945 470.218C892.226 467.853 891.011 465.67 889.38 463.813V463.813Z" fill="#292A2E"/>
<path d="M905.9 477.363L891.121 590.843H658.72L674.041 473.194C674.408 470.38 675.509 467.712 677.235 465.46C678.961 463.207 681.25 461.449 683.871 460.363C685.829 459.546 687.93 459.128 690.051 459.133H889.89C892.186 459.133 894.456 459.624 896.547 460.571C898.639 461.518 900.505 462.9 902.02 464.626C903.535 466.351 904.665 468.379 905.334 470.576C906.003 472.772 906.196 475.086 905.9 477.363V477.363Z" fill="#292A2E"/>
<path d="M902.94 463.813C901.309 461.958 899.302 460.472 897.052 459.453C894.801 458.434 892.36 457.905 889.89 457.903H690.051C686.923 457.908 683.855 458.758 681.17 460.363C678.911 461.708 676.986 463.548 675.54 465.744C674.094 467.94 673.164 470.436 672.821 473.043L657.481 590.843H659.96L675.26 473.353C675.735 469.764 677.496 466.47 680.216 464.081C682.936 461.692 686.43 460.371 690.05 460.363H889.89C892.012 460.364 894.109 460.817 896.042 461.693C897.975 462.569 899.699 463.846 901.099 465.441C902.498 467.036 903.542 468.911 904.159 470.941C904.777 472.971 904.955 475.11 904.68 477.214L889.89 590.843H892.36L907.121 477.523C907.437 475.072 907.228 472.581 906.507 470.218C905.786 467.854 904.57 465.67 902.94 463.813V463.813Z" fill="#292A2E"/>
<path d="M11.95 591.545H925.369C925.555 591.545 925.733 591.471 925.864 591.34C925.995 591.209 926.069 591.031 926.069 590.845C926.069 590.659 925.995 590.481 925.864 590.35C925.733 590.219 925.555 590.145 925.369 590.145H11.95C11.7644 590.145 11.5863 590.219 11.4551 590.35C11.3238 590.481 11.25 590.659 11.25 590.845C11.25 591.031 11.3238 591.209 11.4551 591.34C11.5863 591.471 11.7644 591.545 11.95 591.545V591.545Z" fill="#292A2E"/>
<g opacity="0.65">
<path opacity="0.65" d="M11.95 591.545H925.369C925.555 591.545 925.733 591.471 925.864 591.34C925.995 591.209 926.069 591.031 926.069 590.845C926.069 590.659 925.995 590.481 925.864 590.35C925.733 590.219 925.555 590.145 925.369 590.145H11.95C11.7644 590.145 11.5863 590.219 11.4551 590.35C11.3238 590.481 11.25 590.659 11.25 590.845C11.25 591.031 11.3238 591.209 11.4551 591.34C11.5863 591.471 11.7644 591.545 11.95 591.545V591.545Z" fill="#292A2E"/>
</g>
<path d="M565.509 552.459L568.725 467.908L613.15 465.557L617.192 552.459H565.509Z" fill="#367CFF"/>
</svg>
